<svg xmlns="http://www.w3.org/2000/svg" width="22.5" height="24.579" viewBox="0 0 22.5 24.579">
  <g id="_709537" data-name="709537" transform="translate(0 0)">
    <g id="Group_37" data-name="Group 37" transform="translate(0 -9)">
      <path id="Path_164" data-name="Path 164" d="M53.026,10,42.368.233A.889.889,0,0,0,41.15.251L31.084,10.02a.889.889,0,0,0-.27.637V23.691a.888.888,0,0,0,.888.888H52.426a.888.888,0,0,0,.888-.888V10.658A.888.888,0,0,0,53.026,10ZM51.538,22.8c-9.921-.067-12.225-.161-18.947,0V11.033l9.2-8.925,9.752,8.94V22.8Z" transform="translate(-30.814 9)" fill="#3b3b3b"/>
    </g>
  </g>
</svg>
