<svg id="Component_6_1" data-name="Component 6 – 1" xmlns="http://www.w3.org/2000/svg" width="20" height="17.5" viewBox="0 0 20 17.5">
  <g id="noun_Repeat_94528" transform="translate(422 -181.624)">
    <g id="Group_9" data-name="Group 9" transform="translate(-427 171)">
      <g id="Group_8" data-name="Group 8" transform="translate(5 10.624)">
        <path id="Path_4" data-name="Path 4" d="M22.427,20.253a3.091,3.091,0,0,1,.028.4c0,1.565-2.048,2.471-3.037,2.471H10v-2.5l-5,3.75,5,3.75v-2.5h9.709A5.648,5.648,0,0,0,25,20.026a4.221,4.221,0,0,0-.291-1.538ZM7.574,18.495a2.967,2.967,0,0,1-.029-.4c0-1.565,2.048-2.471,3.037-2.471H20v2.5l5-3.75-5-3.75v2.5H10.29A5.648,5.648,0,0,0,5,18.723a4.228,4.228,0,0,0,.29,1.536Z" transform="translate(-5 -10.624)" fill="#ffc4c4"/>
      </g>
    </g>
  </g>
</svg>
